<?xml version="1.0" standalone="no"?>
<!DOCTYPE svg PUBLIC "-//W3C//DTD SVG 20010904//EN"
 "http://www.w3.org/TR/2001/REC-SVG-20010904/DTD/svg10.dtd">
<svg version="1.0" xmlns="http://www.w3.org/2000/svg"
 width="221.000000pt" height="228.000000pt" viewBox="0 0 221.000000 228.000000"
 preserveAspectRatio="xMidYMid meet">

<g transform="translate(0.000000,228.000000) scale(0.100000,-0.100000)"
fill="#21DFB6" stroke="none">
<path d="M767 2185 c-53 -18 -83 -49 -101 -103 -35 -102 -7 -179 83 -224 30
-16 64 -28 76 -28 12 0 34 -9 49 -21 38 -30 36 -79 -6 -114 -36 -31 -62 -28
-120 12 -110 75 -262 71 -334 -9 -91 -100 -78 -229 29 -282 42 -22 65 -26 133
-26 98 0 110 -4 130 -42 12 -24 13 -33 2 -55 -17 -36 -40 -41 -190 -42 -71 -1
-128 -4 -128 -9 0 -4 11 -24 26 -45 l25 -37 202 2 c168 1 211 -1 253 -15 85
-29 122 -83 144 -210 l12 -67 58 0 57 0 7 52 c11 90 34 144 76 182 59 53 98
60 326 57 l201 -2 26 40 c15 23 27 42 27 45 0 2 -65 6 -145 8 -132 3 -146 5
-166 24 -16 17 -20 28 -14 53 10 49 38 61 135 61 94 0 147 18 188 63 74 79 26
240 -86 289 -65 29 -171 22 -238 -17 -102 -58 -102 -58 -136 -44 -32 13 -59
60 -51 90 8 28 38 50 85 60 95 22 168 95 168 170 0 123 -94 211 -208 195 -73
-9 -166 -60 -214 -116 l-41 -48 -27 37 c-35 47 -118 101 -183 118 -63 16 -82
16 -130 -2z m141 -90 c84 -36 127 -106 126 -210 0 -38 -6 -83 -13 -100 l-13
-30 -13 39 c-21 61 -71 104 -141 122 -90 24 -126 70 -102 133 21 58 83 76 156
46z m515 3 c33 -17 46 -39 47 -79 0 -53 -29 -85 -92 -99 -29 -7 -69 -22 -89
-35 -32 -21 -69 -76 -69 -104 0 -26 -20 -8 -29 27 -14 49 -14 105 0 153 31
103 157 177 232 137z m-168 -494 c27 -13 61 -24 74 -24 21 0 22 -3 16 -27 -16
-66 -17 -178 -1 -223 9 -25 18 -49 19 -54 1 -4 -17 -14 -40 -21 -81 -24 -184
-103 -206 -156 -5 -11 -9 -9 -18 6 -40 66 -124 124 -231 158 -15 5 -15 10 4
59 16 43 19 67 14 128 -3 41 -8 87 -11 101 -6 24 -4 27 33 32 51 9 128 61 167
113 l30 41 50 -55 c29 -32 70 -64 100 -78z m-585 36 c75 -38 120 -119 120
-215 l0 -60 -29 45 c-15 25 -40 51 -55 58 -15 7 -67 12 -117 12 -84 0 -91 2
-114 26 -17 19 -25 39 -25 64 0 86 115 123 220 70z m1022 20 c74 -21 99 -93
52 -149 -25 -30 -28 -31 -115 -31 -107 0 -138 -13 -172 -71 -24 -39 -25 -40
-31 -16 -10 40 12 129 42 171 33 47 65 72 118 91 48 17 59 18 106 5z"/>
<path d="M553 1073 c-24 -2 -43 -6 -43 -8 0 -2 9 -19 20 -38 l20 -34 148 -5
c155 -5 203 -17 251 -61 l23 -22 -7 35 c-24 115 -50 129 -238 134 -73 2 -151
2 -174 -1z"/>
<path d="M1384 1070 c-84 -12 -111 -37 -129 -117 l-6 -32 60 31 c58 30 67 31
210 36 l149 5 21 37 21 37 -62 7 c-76 8 -197 6 -264 -4z"/>
<path d="M762 937 c-22 -28 -23 -56 -3 -66 27 -15 29 -14 41 9 20 37 -14 87
-38 57z"/>
<path d="M586 845 c-9 -20 -20 -74 -26 -121 -6 -46 -13 -91 -16 -99 -4 -8 -3
-15 0 -15 17 0 48 99 56 178 5 47 7 88 5 90 -2 2 -11 -12 -19 -33z"/>
<path d="M1535 850 c-15 -30 -15 -33 2 -52 17 -20 18 -20 35 2 23 28 23 43 -1
64 -19 17 -20 17 -36 -14z"/>
<path d="M476 841 c-14 -26 -14 -30 5 -47 20 -18 21 -18 35 1 17 23 18 47 2
63 -18 18 -26 15 -42 -17z"/>
<path d="M791 844 c-16 -35 -14 -47 9 -61 16 -11 21 -10 30 6 15 30 12 59 -9
70 -15 8 -20 6 -30 -15z"/>
<path d="M722 840 c-16 -26 -15 -45 3 -60 32 -26 63 38 33 68 -16 16 -21 15
-36 -8z"/>
<path d="M1270 810 c-10 -24 -10 -33 0 -45 17 -21 27 -19 46 10 16 24 16 27
-1 45 -24 27 -30 25 -45 -10z"/>
<path d="M1068 774 c-20 -27 -47 -58 -59 -69 l-23 -20 23 32 c12 18 26 35 31
38 6 4 10 11 10 17 0 6 -16 -6 -34 -28 -19 -21 -33 -46 -30 -54 2 -10 -18 -38
-52 -70 l-56 -55 6 60 c4 33 9 76 12 95 l4 35 -16 -35 c-31 -67 -47 -277 -25
-319 25 -46 84 -15 116 61 l15 37 37 -21 c71 -42 292 -24 426 36 134 59 263
171 290 251 9 26 15 50 13 53 -3 2 -19 -21 -36 -52 -53 -93 -185 -175 -349
-217 -93 -24 -241 -25 -361 -3 l-89 16 72 82 c79 88 121 150 115 168 -2 6 -20
-11 -40 -38z m-118 -264 c22 -14 0 -44 -34 -48 -28 -4 -43 16 -32 43 6 17 43
20 66 5z"/>
<path d="M1310 730 c-13 -30 -13 -30 -24 -9 -17 33 -33 34 -50 1 -14 -28 -14
-31 5 -48 20 -18 21 -18 35 0 13 18 15 18 32 3 18 -16 20 -16 35 1 22 24 21
45 -2 66 -17 16 -19 15 -31 -14z"/>
<path d="M813 710 c-12 -11 -26 -20 -31 -20 -5 0 -17 -9 -27 -20 -10 -11 -30
-20 -44 -20 -47 0 -113 -42 -158 -100 -70 -90 -143 -169 -174 -187 -40 -24
-37 -37 4 -17 56 29 98 66 155 137 52 67 97 97 141 97 10 0 34 15 53 33 19 17
52 46 73 62 21 17 36 36 34 43 -3 9 -11 7 -26 -8z"/>
<path d="M474 618 c-12 -37 -30 -66 -63 -95 -32 -31 -40 -43 -28 -43 56 0 98
55 113 150 9 56 -1 50 -22 -12z"/>
<path d="M1700 604 c-11 -25 -20 -58 -20 -72 0 -15 -7 -51 -14 -80 -15 -56 -6
-60 20 -9 15 28 47 207 37 207 -2 0 -13 -21 -23 -46z"/>
<path d="M1800 550 c-11 -26 -10 -33 4 -49 25 -27 19 -47 -20 -78 -41 -31 -31
-42 16 -18 49 25 75 108 50 156 -15 28 -36 23 -50 -11z"/>
<path d="M732 525 c-7 -14 -12 -34 -12 -45 0 -10 -4 -22 -10 -25 -5 -3 -10
-22 -10 -41 0 -31 3 -35 22 -32 51 7 88 116 52 152 -21 22 -29 20 -42 -9z m23
-85 c0 -8 -8 -16 -17 -18 -13 -2 -18 3 -18 18 0 15 5 20 18 18 9 -2 17 -10 17
-18z"/>
<path d="M1539 485 c-13 -13 -51 -40 -83 -59 -73 -44 -54 -47 30 -6 38 20 66
41 73 57 16 35 10 37 -20 8z"/>
<path d="M530 393 c-8 -16 -16 -31 -17 -35 -2 -4 6 -12 18 -18 16 -9 24 -8 38
4 16 14 19 14 35 -2 16 -16 18 -16 32 2 18 26 18 50 -2 67 -14 11 -18 10 -30
-6 -8 -10 -14 -24 -14 -29 0 -6 -6 0 -13 13 -17 35 -31 36 -47 4z"/>
<path d="M55 222 c-30 -6 -45 -22 -45 -47 0 -27 13 -39 63 -55 43 -13 44 -33
4 -38 -18 -2 -29 2 -33 12 -7 19 -44 21 -44 3 0 -44 101 -65 133 -29 33 36 19
62 -46 85 -20 6 -37 16 -39 22 -5 15 32 18 58 4 28 -15 43 -5 28 18 -12 19
-50 31 -79 25z"/>
<path d="M190 135 c0 -69 3 -85 15 -85 11 0 15 11 15 39 0 39 20 68 40 56 5
-3 10 -26 10 -51 0 -32 4 -44 15 -44 11 0 15 13 15 54 0 61 -15 80 -54 70 -23
-5 -26 -3 -26 20 0 16 -6 26 -15 26 -12 0 -15 -16 -15 -85z"/>
<path d="M350 204 c0 -9 7 -14 17 -12 25 5 28 28 4 28 -12 0 -21 -6 -21 -16z"/>
<path d="M930 163 c0 -32 6 -69 13 -83 11 -22 19 -25 62 -25 43 0 51 3 62 25
7 14 13 51 13 83 0 50 -2 57 -20 57 -18 0 -20 -7 -20 -54 0 -69 -7 -86 -35
-86 -28 0 -35 17 -35 86 0 47 -2 54 -20 54 -18 0 -20 -7 -20 -57z"/>
<path d="M1282 208 c7 -19 38 -22 38 -4 0 10 -9 16 -21 16 -12 0 -19 -5 -17
-12z"/>
<path d="M1920 205 c0 -8 9 -15 20 -15 11 0 20 7 20 15 0 8 -9 15 -20 15 -11
0 -20 -7 -20 -15z"/>
<path d="M2003 183 c-8 -16 -9 -29 -4 -33 5 -3 11 -26 13 -50 3 -41 6 -45 31
-48 29 -4 37 12 12 22 -17 6 -20 57 -5 72 12 12 -9 64 -25 64 -5 0 -16 -12
-22 -27z"/>
<path d="M350 114 c0 -57 2 -64 20 -64 18 0 20 7 20 59 0 50 -3 59 -20 64 -18
5 -20 0 -20 -59z"/>
<path d="M463 173 l-33 -4 0 -60 c0 -52 2 -59 20 -59 17 0 20 7 20 44 0 36 4
46 20 51 18 6 30 37 13 33 -5 0 -23 -3 -40 -5z"/>
<path d="M554 163 c-17 -17 -17 -18 0 -21 9 -2 23 2 31 8 14 12 35 6 35 -9 0
-4 -17 -12 -37 -17 -33 -8 -38 -13 -38 -39 0 -30 1 -30 58 -32 l57 -2 0 49 c0
31 -6 54 -16 64 -21 21 -68 20 -90 -1z m66 -68 c0 -19 -24 -30 -41 -19 -9 5
-7 11 6 21 24 17 35 17 35 -2z"/>
<path d="M700 163 c0 -7 11 -13 25 -13 33 0 32 -10 -5 -45 -46 -44 -40 -55 30
-55 47 0 60 3 60 15 0 11 -11 15 -37 15 l-37 0 39 40 c21 22 36 43 32 46 -12
13 -107 10 -107 -3z"/>
<path d="M1153 173 l-33 -4 0 -60 c0 -52 2 -59 19 -59 17 0 20 8 23 47 2 36 7
49 21 51 14 3 17 -4 17 -47 0 -44 3 -51 20 -51 17 0 20 7 20 53 0 55 -12 78
-39 75 -9 0 -31 -3 -48 -5z"/>
<path d="M1298 173 c-15 -4 -18 -16 -18 -64 0 -52 2 -59 20 -59 18 0 20 7 20
65 0 36 -1 64 -2 64 -2 -1 -11 -3 -20 -6z"/>
<path d="M1371 171 c-21 -14 16 -115 44 -119 16 -2 24 9 42 58 21 57 21 60 3
60 -13 0 -23 -13 -32 -42 l-14 -42 -12 47 c-7 26 -13 47 -15 47 -1 0 -8 -4
-16 -9z"/>
<path d="M1525 155 c-29 -28 -31 -51 -9 -83 19 -27 75 -30 100 -4 17 16 17 17
-1 21 -11 2 -21 -2 -23 -8 -5 -16 -39 -13 -46 4 -4 12 4 15 39 15 38 0 45 3
45 20 0 26 -34 60 -60 60 -12 0 -32 -11 -45 -25z m65 -16 c0 -5 -12 -9 -26 -9
-22 0 -24 2 -14 14 12 15 40 11 40 -5z"/>
<path d="M1670 113 c0 -56 2 -63 20 -63 17 0 20 7 20 44 0 36 4 46 20 51 11 3
20 13 20 21 0 17 -5 17 -31 4 -10 -6 -19 -7 -19 -2 0 5 -7 9 -15 9 -12 0 -15
-14 -15 -64z"/>
<path d="M1798 169 c-10 -5 -18 -21 -18 -34 0 -19 7 -26 32 -33 37 -9 50 -32
19 -32 -12 0 -21 5 -21 10 0 6 -9 10 -20 10 -11 0 -20 -4 -20 -9 0 -19 30 -32
67 -29 35 3 38 5 38 33 0 25 -5 32 -32 40 -18 5 -33 12 -33 16 0 16 20 19 39
7 27 -16 41 0 17 18 -23 16 -44 17 -68 3z"/>
<path d="M2101 171 c-11 -7 -10 -19 8 -66 22 -58 21 -75 -5 -75 -8 0 -14 -7
-14 -15 0 -23 47 -19 60 6 6 11 22 49 36 85 22 60 23 64 5 64 -12 0 -22 -13
-31 -42 l-13 -43 -14 48 c-7 26 -15 47 -16 47 -1 0 -8 -4 -16 -9z"/>
<path d="M1920 110 c0 -53 2 -60 20 -60 18 0 20 7 20 60 0 53 -2 60 -20 60
-18 0 -20 -7 -20 -60z"/>
</g>
</svg>
